PathFileType	4	(X/Y/Z)	 s01c0103.trc
DataRate	CameraRate	NumFrames	NumMarkers	Units	OrigDataRate	OrigDataStartFrame	OrigNumFrames
200	200	7	48	mm	200	1751	2000
Frame#	Time	racr			lacr			c7			jug			rlel			rdr			llel			ldr			s2			lic			ric			lasi			rasi			rpsi			lpsi			rgt			lgt			rth1			rth2			rth3			rth4			rlfc			rsh1			rsh2			rsh3			rsh4			rlmal			rmmal			rcal			rtoe			rmt5			lth1			lth2			lth4			lth3			llfc			lsh1			lsh2			lsh3			lsh4			llmal			lmmal			lcal			ltoe			lmt5			SBIKE			LBIKE			RBIKE			
		X1	Y1	Z1	X2	Y2	Z2	X3	Y3	Z3	X4	Y4	Z4	X5	Y5	Z5	X6	Y6	Z6	X7	Y7	Z7	X8	Y8	Z8	X9	Y9	Z9	X10	Y10	Z10	X11	Y11	Z11	X12	Y12	Z12	X13	Y13	Z13	X14	Y14	Z14	X15	Y15	Z15	X16	Y16	Z16	X17	Y17	Z17	X18	Y18	Z18	X19	Y19	Z19	X20	Y20	Z20	X21	Y21	Z21	X22	Y22	Z22	X23	Y23	Z23	X24	Y24	Z24	X25	Y25	Z25	X26	Y26	Z26	X27	Y27	Z27	X28	Y28	Z28	X29	Y29	Z29	X30	Y30	Z30	X31	Y31	Z31	X32	Y32	Z32	X33	Y33	Z33	X34	Y34	Z34	X35	Y35	Z35	X36	Y36	Z36	X37	Y37	Z37	X38	Y38	Z38	X39	Y39	Z39	X40	Y40	Z40	X41	Y41	Z41	X42	Y42	Z42	X43	Y43	Z43	X44	Y44	Z44	X45	Y45	Z45	X46	Y46	Z46	X47	Y47	Z47	X48	Y48	Z48	
1751	8.7550	514.203332	1324.792747	-114.967128	534.847392	1284.660856	-429.512825	482.718494	1386.311088	-270.896275	468.778486	1222.160381	-266.722208	577.164101	1064.652352	0.423953	731.635062	859.555308	-57.876178	536.186130	1017.393834	-550.275469	713.650561	872.086469	-436.915785	NaN	NaN	NaN	112.931710	1172.833124	-435.910899	110.047206	1177.828810	-107.297942	115.864480	1119.315462	-410.984931	138.654505	1136.157252	-136.682722	-22.987952	1201.321980	-209.912277	-27.299934	1201.158743	-316.229402	74.934764	1072.826879	-68.541553	56.275667	1023.138827	-448.590849	192.012111	1011.972227	-62.928584	273.926913	992.861492	-64.418872	357.971349	961.589577	-81.323771	288.088433	1041.837266	-89.289528	429.249398	880.112142	-110.473274	343.771480	801.748730	-77.221084	285.895182	739.963087	-81.370697	219.124265	681.631759	-89.843473	319.246141	706.992844	-119.091898	122.733883	609.724009	-105.922540	164.371811	589.854783	-183.628308	76.794265	617.823360	-161.802665	235.980719	397.708733	-136.882847	146.366182	462.263554	-73.108202	110.753205	904.789555	-448.789837	174.388667	842.782647	-444.661478	213.298342	881.070820	-442.568685	228.931114	779.457338	-423.489570	296.132225	676.441017	-408.352409	248.664148	576.422346	-442.785169	241.069424	490.204769	-437.176991	230.833301	405.660135	-424.699681	296.093131	487.681062	-409.360290	216.142913	277.027894	-410.732614	268.537933	315.228177	-334.709431	171.148362	246.695688	-370.174133	448.549159	220.608877	-374.554895	344.551842	195.675064	-441.104573	-224.691818	892.918802	-254.904696	-13.142899	84.465167	-457.886280	-22.853003	80.789078	-57.800862	
1752	8.7600	513.160084	1326.137214	-114.130543	535.643639	1285.876523	-428.148162	482.480883	1387.158454	-269.778537	468.466263	1223.298796	-265.932416	577.160346	1066.326191	-1.312194	731.555095	859.853262	-58.338496	538.064427	1019.352115	-549.637480	714.318771	871.801885	-436.910186	NaN	NaN	NaN	113.707445	1171.797476	-437.165814	109.498881	1178.487721	-108.226950	117.046122	1118.844022	-411.730768	138.712155	1136.857705	-137.478811	-23.022527	1200.893877	-212.137908	-26.826304	1200.448503	-318.383150	74.666863	1073.906381	-69.464591	56.396110	1021.814843	-449.633145	191.774983	1014.407017	-63.619094	273.958241	996.818422	-64.986727	358.672438	967.440945	-81.243699	287.337998	1046.362374	-89.175630	432.430367	888.729046	-110.027859	347.410442	810.684954	-76.981035	289.757217	748.816211	-81.580821	223.354517	690.060632	-90.216621	323.654882	715.492540	-118.607275	127.506078	616.721541	-106.893257	169.823102	597.375736	-184.101653	81.283642	623.609754	-162.645620	245.518352	407.576435	-136.098115	153.987742	469.964229	-73.193627	108.423511	903.238780	-450.154040	170.658483	839.760955	-446.104679	210.410443	877.032242	-443.588349	223.533422	775.149871	-424.970599	289.080805	670.692033	-409.533179	240.809263	571.113523	-444.032871	233.003266	484.936621	-438.115049	222.590253	400.407678	-425.431323	288.231108	482.291772	-410.735035	208.296918	271.397341	-410.859526	262.563299	311.429510	-335.037292	163.769890	241.712655	-370.382673	440.635872	213.061452	-374.713098	336.416594	188.876469	-441.277197	-224.758530	892.920034	-255.011073	-13.163129	84.416640	-457.926897	-22.877709	80.792044	-57.816484	
1753	8.7650	512.090750	1327.595176	-113.545326	536.372265	1287.101315	-426.782352	482.189887	1387.989330	-268.657170	468.301810	1223.955209	-265.192262	576.800914	1068.036231	-3.082660	731.440494	860.228073	-58.730470	539.800546	1021.174246	-548.972498	714.924605	871.528667	-436.862492	NaN	NaN	NaN	114.244774	1170.534889	-438.081704	109.197939	1179.184966	-108.974614	118.073223	1118.262790	-412.509999	138.603327	1137.479872	-138.332882	-23.133062	1200.558341	-214.266314	-26.469817	1199.879493	-320.416265	74.401095	1074.915872	-70.399526	56.513022	1020.889547	-450.634114	191.313983	1016.886777	-64.335389	273.855357	1000.712404	-65.552758	358.901676	972.947469	-81.638603	286.581236	1050.698463	-89.019528	435.361521	897.093369	-109.633732	350.765433	819.500748	-76.767882	293.608865	757.186999	-81.646856	227.574502	698.006303	-90.581435	328.141626	723.703834	-117.780065	132.539180	622.896201	-107.933897	175.583958	604.209035	-184.501707	85.975640	628.709549	-163.495244	254.703051	415.902790	-136.565528	161.411010	476.791993	-73.512844	106.117586	901.993297	-451.552280	166.940120	837.137115	-447.688694	207.606853	873.546408	-445.048875	218.326745	771.304517	-426.519490	281.952509	665.972323	-410.998604	232.697249	566.416700	-445.813088	224.870030	480.309894	-439.192737	214.389847	395.814427	-426.123484	280.329877	477.571234	-412.287560	200.324393	266.520636	-410.996118	256.298509	308.095668	-335.338931	156.151748	237.408309	-370.610065	432.495453	205.868393	-374.885931	328.010186	182.638991	-441.389693	-224.824861	892.946700	-255.118269	-13.203319	84.395695	-457.952921	-22.908011	80.808826	-57.828605	
1754	8.7700	511.027531	1328.932447	-113.127561	537.021180	1288.320542	-425.421400	481.843003	1388.786280	-267.542980	467.871021	1225.141591	-264.623706	576.233699	1069.514803	-4.587466	731.439565	860.832377	-59.397465	541.442538	1022.938412	-548.346183	715.870810	871.508147	-436.873817	NaN	NaN	NaN	114.877961	1169.176817	-438.520094	108.706715	1179.824948	-109.755579	118.950113	1117.580182	-413.333191	138.502114	1138.163480	-138.923078	-23.346211	1200.421571	-216.251927	-26.241464	1199.479989	-322.302585	74.114480	1076.008207	-71.206317	56.590669	1020.220350	-451.666351	190.910925	1019.551699	-65.037517	273.655609	1004.530150	-66.278997	359.075273	978.457753	-81.486511	285.810723	1055.117918	-88.790305	437.868882	905.378812	-109.054562	353.998122	828.082639	-76.740397	297.383489	765.272388	-81.690339	231.749972	705.630484	-90.650751	332.762370	731.619692	-116.728969	137.919453	628.366747	-108.940989	181.634011	610.335350	-184.848623	91.014887	633.041417	-164.303539	264.052355	423.950927	-136.388486	169.594529	483.027059	-73.633501	103.777595	901.082246	-453.039353	163.261686	834.985938	-449.378232	204.521315	870.348536	-446.764882	213.260223	767.949614	-428.307019	275.070717	661.815377	-412.611875	225.078621	562.187126	-447.290049	216.885494	476.219008	-440.317360	206.221190	391.827556	-426.917790	272.632593	473.399750	-413.950273	192.360033	262.534400	-411.306739	249.767486	305.223360	-335.614307	148.352943	233.689487	-370.850819	424.057518	199.240497	-375.043435	319.351765	177.047196	-441.580240	-224.904516	892.950186	-255.230111	-13.214867	84.376138	-457.976903	-22.914447	80.806431	-57.851581	
1755	8.7750	510.020094	1330.103984	-112.896995	537.579499	1289.517631	-424.069821	481.440457	1389.535563	-266.446520	467.562705	1225.746568	-264.000678	575.344149	1070.652871	-5.562930	731.297577	861.378777	-59.856088	543.001778	1024.712506	-547.718582	716.692921	871.459944	-436.906701	NaN	NaN	NaN	115.911668	1168.248181	-438.777825	108.242979	1180.424329	-110.441912	119.574622	1116.824550	-414.121682	138.306851	1138.829989	-139.639666	-23.689503	1200.411259	-218.070257	-26.139755	1199.276568	-324.022246	73.797711	1077.341594	-71.880936	56.539681	1019.762404	-452.643861	190.597640	1022.329781	-65.781545	273.394053	1008.315823	-67.033130	359.377861	983.843600	-81.505385	285.034117	1059.406965	-88.648308	439.998679	913.389776	-108.447756	357.233540	836.217759	-77.279456	301.073502	772.780446	-81.687207	236.142627	712.429196	-90.845469	337.302937	739.088994	-115.788363	143.551703	633.098751	-109.768963	187.848945	615.759667	-185.160099	96.274567	636.582798	-164.660577	273.752239	431.470466	-136.177958	177.907819	488.798274	-73.741588	101.550926	900.498325	-454.467638	159.684282	833.165690	-451.107862	201.613513	867.926557	-448.306554	208.382549	765.198470	-430.137110	268.519880	658.252665	-414.432589	217.706796	558.676567	-448.897932	209.175499	472.686752	-441.473064	198.208526	388.360917	-427.735646	265.120461	469.673446	-415.693556	184.313136	259.249315	-411.635886	242.994152	302.809295	-335.863374	140.407350	230.564261	-371.098860	415.481806	192.985104	-375.260193	310.471352	172.107355	-441.733372	-224.977371	892.939310	-255.292450	-13.228991	84.368962	-458.000110	-22.934558	80.794883	-57.867863	
1756	8.7800	509.125556	1331.273993	-112.818334	538.038174	1290.677047	-422.735802	480.985455	1390.225659	-265.384511	467.224697	1226.609359	-263.650388	574.209740	1071.343954	-6.104362	731.108449	862.043242	-60.429595	544.390320	1026.408914	-547.062570	716.796892	871.044161	-437.303350	NaN	NaN	NaN	117.344388	1167.437003	-438.905121	107.662309	1181.001699	-110.972853	119.924727	1116.203680	-414.829697	137.946693	1139.711078	-140.257790	-24.216580	1200.655417	-219.703401	-26.150900	1199.291503	-325.563770	73.472670	1078.898604	-72.404301	56.272974	1019.575314	-453.505130	190.153095	1025.175196	-66.459867	272.999975	1012.075008	-68.336678	359.572161	988.924045	-81.505485	284.236773	1063.635917	-88.709751	441.803115	921.224293	-107.801871	360.193659	843.838298	-77.013162	304.910307	779.738006	-81.621600	240.799021	718.554882	-90.887701	341.944650	746.028568	-114.812091	149.094458	637.419302	-110.007462	194.173673	620.483046	-185.384028	102.026061	639.106784	-165.767385	283.724950	438.595594	-135.892212	186.409415	493.731933	-74.074067	99.355416	900.171376	-455.854764	156.245710	831.802470	-452.929100	198.892310	865.853447	-449.881451	203.823413	762.969447	-432.269702	262.354392	655.346789	-416.486643	210.617159	555.750307	-450.456076	201.619429	469.944377	-442.579406	190.296588	385.702250	-428.550691	257.833634	466.613817	-417.436265	176.226819	256.673528	-411.992737	236.002431	300.850179	-336.086090	132.405758	227.645198	-371.350799	406.653913	187.103509	-375.405803	301.317977	167.750586	-441.838030	-225.051479	892.936418	-255.334433	-13.248290	84.332472	-458.026433	-22.957536	80.810999	-57.864738	
1757	8.7850	508.247207	1332.267639	-112.805425	538.391931	1291.783746	-421.430554	480.481440	1390.854329	-264.370424	466.956607	1227.290273	-263.259176	572.655318	1071.608959	-6.072335	730.862484	862.674540	-60.957927	545.739581	1027.911615	-546.339185	717.559723	870.674494	-437.442655	NaN	NaN	NaN	118.428482	1166.944814	-439.042360	107.099683	1181.664078	-111.387320	120.137789	1115.911724	-415.534698	137.534721	1140.711266	-140.752456	-24.854250	1201.148699	-221.127135	-26.250270	1199.534752	-326.926125	73.212391	1080.679730	-72.788530	55.898278	1019.604955	-454.229322	189.820893	1028.062210	-66.989316	272.757810	1015.910375	-68.715199	359.608161	994.038611	-81.484763	283.433401	1067.780691	-88.777816	443.286241	928.750217	-107.224218	363.058082	850.876003	-76.766146	308.786892	785.977867	-81.369315	245.605817	723.725095	-90.859044	346.680263	752.530304	-113.779358	154.770186	640.009546	-110.338922	200.431844	624.491890	-185.497910	107.423111	641.037495	-166.219771	293.943499	445.157946	-135.559303	195.934655	498.638574	-73.424812	97.248384	900.116340	-457.245648	152.911443	830.752067	-455.171586	196.483880	864.225833	-451.764927	199.652138	761.240458	-434.438533	256.731092	652.738170	-418.691776	204.062409	553.525570	-451.950924	194.442764	467.864504	-443.640144	182.529616	383.801954	-429.284431	250.869543	464.172018	-419.099132	168.171301	254.967314	-412.240961	228.816245	299.342722	-336.282410	124.277866	225.387852	-371.603519	397.675066	181.680649	-375.643761	291.978898	164.147151	-442.066735	-225.111591	892.926174	-255.365024	-13.261019	84.341010	-458.024243	-22.969436	80.809732	-57.873519	
